<svg width="183" height="32" viewBox="0 0 183 32" fill="none" xmlns="http://www.w3.org/2000/svg">
<path d="M12.5265 23.0598C10.9646 21.4979 10.9334 18.9739 12.4578 17.3807V17.3495L10.596 19.2737C9.23406 20.6045 9.03414 22.6974 10.0337 24.2593C10.1649 24.5279 10.3649 24.7591 10.596 24.9902C11.5581 25.9524 12.9201 26.3522 14.2196 26.0898C14.9818 25.9586 15.7128 25.59 16.3125 24.9902L18.1368 23.166C16.5437 24.6279 14.0509 24.5967 12.5203 23.066L12.5265 23.0598Z" fill="#004071"/>
<path d="M6.87896 5.87894L6.61032 6.07887C4.11754 8.44044 2.52441 11.6954 2.52441 15.3502C2.52441 22.4912 8.3034 28.2764 15.4506 28.2764C19.2366 28.2764 22.6291 26.6833 24.9844 24.0906L25.0156 24.0218C25.2468 23.622 25.3842 23.1597 25.3842 22.6224C25.3842 21.0917 24.1222 19.8297 22.5916 19.8297C21.9293 19.8297 21.3296 20.0297 20.8298 20.4295L20.6986 20.5295L20.3987 20.8293L16.2815 24.9465C14.7509 26.4771 12.2581 26.4771 10.7337 24.9465C9.20305 23.4158 9.20305 20.9293 10.7337 19.3987L15.2882 14.7505C16.2878 13.6509 16.8813 12.2265 16.8813 10.6271C16.8813 7.24091 14.1261 4.47949 10.7337 4.47949C9.27178 4.47949 7.90981 5.01053 6.87896 5.8727V5.87894Z" fill="#0066B3"/>
<path d="M0 2.8239C0 4.35455 1.26201 5.61655 2.8239 5.61655C4.38578 5.61655 5.64779 4.35455 5.64779 2.8239C5.64779 1.29324 4.38578 0 2.8239 0C1.26201 0 0 1.26201 0 2.8239Z" fill="#0066B3"/>
<path d="M18.9362 31.4002C19.4984 31.5314 17.974 32 15.45 32C12.926 32 11.4266 31.4689 12.0264 31.3002C12.6261 31.1378 14.1505 31.269 15.4813 31.3002C16.812 31.369 18.3364 31.269 18.9362 31.4002Z" fill="#BCBEC0"/>
<path d="M34.0109 23.5L29.4727 9.38552H32.5915L35.9102 20.2413H34.6906L37.9294 9.38552H40.3884L43.6271 20.2413H42.4276L45.7263 9.38552H48.8251L44.2869 23.5H41.8278L38.5691 12.6442H39.7287L36.4699 23.5H34.0109ZM47.902 23.5L53.4998 9.38552H56.3387L61.8766 23.5H58.5579L54.3195 11.7846H55.4591L51.1608 23.5H47.902ZM51.0808 20.941V18.382H58.7778V20.941H51.0808ZM63.37 23.5V9.38552H65.6092L71.167 18.0421H70.0274L75.5653 9.38552H77.8244V23.5H74.6856V14.6834L75.2454 14.8234L71.6268 20.4612H69.5476L65.949 14.8234L66.4888 14.6834V23.5H63.37ZM84.4963 23.7199C83.3368 23.7199 82.3372 23.5333 81.4975 23.1601C80.6711 22.7736 79.9114 22.1938 79.2184 21.4208L81.2576 19.4016C81.7107 19.9214 82.2105 20.3279 82.757 20.6211C83.3168 20.901 83.9632 21.041 84.6962 21.041C85.3626 21.041 85.8758 20.921 86.2356 20.6811C86.6088 20.4412 86.7954 20.108 86.7954 19.6815C86.7954 19.295 86.6755 18.9818 86.4356 18.7419C86.1956 18.502 85.8758 18.2954 85.4759 18.1221C85.0894 17.9488 84.6563 17.7822 84.1764 17.6223C83.71 17.4624 83.2435 17.2824 82.777 17.0825C82.3105 16.8693 81.8773 16.6094 81.4775 16.3028C81.091 15.9829 80.7778 15.5898 80.5379 15.1233C80.298 14.6435 80.178 14.0437 80.178 13.324C80.178 12.4577 80.3846 11.7113 80.7978 11.0849C81.2243 10.4584 81.8107 9.98529 82.5571 9.66541C83.3034 9.33221 84.1631 9.16561 85.1361 9.16561C86.1223 9.16561 87.022 9.33887 87.835 9.6854C88.6614 10.0319 89.3411 10.5051 89.8742 11.1048L87.835 13.1241C87.4085 12.6842 86.9753 12.3577 86.5355 12.1444C86.109 11.9312 85.6225 11.8246 85.0761 11.8246C84.5296 11.8246 84.0965 11.9312 83.7766 12.1444C83.4567 12.3444 83.2968 12.6376 83.2968 13.0241C83.2968 13.384 83.4167 13.6772 83.6566 13.9038C83.8965 14.117 84.2098 14.3036 84.5963 14.4635C84.9961 14.6235 85.4293 14.7834 85.8958 14.9433C86.3756 15.1033 86.8487 15.2899 87.3152 15.5031C87.7817 15.7164 88.2082 15.9896 88.5947 16.3228C88.9946 16.6427 89.3144 17.0559 89.5543 17.5623C89.7942 18.0555 89.9142 18.6686 89.9142 19.4016C89.9142 20.7477 89.4344 21.8073 88.4748 22.5804C87.5151 23.3401 86.189 23.7199 84.4963 23.7199Z" fill="black"/>
<path d="M96.499 14L95.0808 9.6642H95.6681L96.7926 13.2003H96.6239L97.7297 9.6642H98.1546L99.2604 13.2003H99.098L100.223 9.6642H100.804L99.3916 14H98.973L97.8609 10.4701H98.0234L96.9176 14H96.499ZM100.675 14L102.45 9.6642H102.875L104.643 14H104.005L102.55 10.3327H102.768L101.3 14H100.675ZM101.519 13.0191V12.5068H103.799V13.0191H101.519ZM105.689 12.1132V11.6197H106.863C107.117 11.6197 107.313 11.5551 107.451 11.426C107.588 11.2969 107.657 11.122 107.657 10.9012C107.657 10.693 107.588 10.5201 107.451 10.3827C107.317 10.2452 107.124 10.1765 106.87 10.1765H105.689V9.6642H106.888C107.163 9.6642 107.403 9.71834 107.607 9.82663C107.811 9.93076 107.967 10.0745 108.075 10.2577C108.188 10.441 108.244 10.6513 108.244 10.8887C108.244 11.1345 108.188 11.349 108.075 11.5322C107.967 11.7155 107.811 11.8592 107.607 11.9633C107.403 12.0633 107.163 12.1132 106.888 12.1132H105.689ZM105.295 14V9.6642H105.883V14H105.295ZM107.794 14L106.22 12.057L106.776 11.8633L108.538 14H107.794ZM109.145 14V9.6642H109.732V14H109.145ZM109.545 14V13.4627H112.031V14H109.545ZM109.545 12.0383V11.526H111.825V12.0383H109.545ZM109.545 10.2015V9.6642H112V10.2015H109.545ZM112.83 14V9.6642H113.417V14H112.83ZM115.629 14V9.6642H116.216V14H115.629ZM113.23 12.0258V11.4885H115.773V12.0258H113.23ZM119.216 14.0625C118.907 14.0625 118.62 14.0062 118.353 13.8938C118.087 13.7772 117.854 13.6168 117.654 13.4127C117.454 13.2045 117.298 12.965 117.185 12.6943C117.077 12.4235 117.023 12.1341 117.023 11.8259C117.023 11.5135 117.077 11.224 117.185 10.9574C117.298 10.6867 117.452 10.4493 117.647 10.2452C117.847 10.0411 118.078 9.88286 118.341 9.7704C118.607 9.65795 118.895 9.60172 119.203 9.60172C119.511 9.60172 119.797 9.65795 120.059 9.7704C120.326 9.88286 120.559 10.0411 120.759 10.2452C120.959 10.4493 121.115 10.6867 121.227 10.9574C121.34 11.2282 121.396 11.5197 121.396 11.8321C121.396 12.1403 121.34 12.4298 121.227 12.7005C121.115 12.9712 120.959 13.2086 120.759 13.4127C120.563 13.6168 120.332 13.7772 120.065 13.8938C119.803 14.0062 119.52 14.0625 119.216 14.0625ZM119.203 13.5002C119.515 13.5002 119.788 13.4294 120.021 13.2878C120.259 13.142 120.446 12.9442 120.584 12.6943C120.721 12.4402 120.79 12.1507 120.79 11.8259C120.79 11.5843 120.75 11.3635 120.671 11.1636C120.592 10.9595 120.482 10.7825 120.34 10.6326C120.198 10.4826 120.032 10.3681 119.84 10.289C119.649 10.2057 119.436 10.164 119.203 10.164C118.895 10.164 118.622 10.2348 118.385 10.3764C118.151 10.518 117.966 10.7138 117.829 10.9637C117.695 11.2136 117.629 11.501 117.629 11.8259C117.629 12.0674 117.666 12.2923 117.741 12.5006C117.82 12.7047 117.929 12.8817 118.066 13.0316C118.208 13.1774 118.374 13.2919 118.566 13.3752C118.762 13.4585 118.974 13.5002 119.203 13.5002ZM123.826 14.0625C123.505 14.0625 123.218 13.9917 122.964 13.8501C122.714 13.7043 122.516 13.5064 122.37 13.2565C122.224 13.0025 122.152 12.7151 122.152 12.3944V9.6642H122.739V12.3819C122.739 12.611 122.787 12.8088 122.883 12.9754C122.978 13.142 123.107 13.2711 123.27 13.3627C123.436 13.4544 123.622 13.5002 123.826 13.5002C124.038 13.5002 124.224 13.4544 124.382 13.3627C124.544 13.2711 124.671 13.142 124.763 12.9754C124.859 12.8088 124.907 12.613 124.907 12.3881V9.6642H125.5V12.4006C125.5 12.7213 125.427 13.0066 125.282 13.2565C125.136 13.5064 124.938 13.7043 124.688 13.8501C124.438 13.9917 124.151 14.0625 123.826 14.0625ZM127.623 14.0625C127.282 14.0625 126.99 14 126.749 13.875C126.507 13.7501 126.292 13.5689 126.105 13.3315L126.505 12.9317C126.642 13.1233 126.801 13.269 126.98 13.369C127.159 13.4648 127.38 13.5127 127.642 13.5127C127.9 13.5127 128.106 13.4565 128.26 13.344C128.419 13.2316 128.498 13.0774 128.498 12.8817C128.498 12.7193 128.46 12.5881 128.385 12.4881C128.31 12.3881 128.208 12.3069 128.079 12.2444C127.954 12.1778 127.817 12.1195 127.667 12.0695C127.517 12.0154 127.367 11.9591 127.217 11.9008C127.067 11.8383 126.93 11.7634 126.805 11.6759C126.68 11.5843 126.578 11.4656 126.499 11.3198C126.424 11.174 126.386 10.9908 126.386 10.77C126.386 10.5243 126.444 10.316 126.561 10.1453C126.682 9.97033 126.844 9.83704 127.048 9.74541C127.257 9.64962 127.49 9.60172 127.748 9.60172C128.031 9.60172 128.285 9.65795 128.51 9.7704C128.735 9.8787 128.919 10.0224 129.06 10.2015L128.66 10.6013C128.531 10.4514 128.392 10.3389 128.242 10.264C128.096 10.189 127.927 10.1515 127.736 10.1515C127.502 10.1515 127.317 10.2036 127.18 10.3077C127.042 10.4077 126.973 10.5493 126.973 10.7325C126.973 10.8783 127.011 10.997 127.086 11.0886C127.165 11.1761 127.267 11.2511 127.392 11.3136C127.517 11.376 127.654 11.4343 127.804 11.4885C127.958 11.5385 128.11 11.5947 128.26 11.6572C128.41 11.7196 128.548 11.7988 128.673 11.8946C128.798 11.9904 128.898 12.1153 128.973 12.2694C129.052 12.4194 129.091 12.6089 129.091 12.838C129.091 13.2211 128.958 13.521 128.692 13.7376C128.429 13.9542 128.073 14.0625 127.623 14.0625ZM129.883 14V9.6642H130.47V14H129.883ZM130.283 14V13.4627H132.769V14H130.283ZM130.283 12.0383V11.526H132.563V12.0383H130.283ZM130.283 10.2015V9.6642H132.738V10.2015H130.283ZM137.71 14L135.636 11.7759C135.473 11.6009 135.353 11.4343 135.274 11.2761C135.194 11.1178 135.155 10.9429 135.155 10.7513C135.155 10.5305 135.207 10.3348 135.311 10.164C135.415 9.98907 135.559 9.85162 135.742 9.75166C135.925 9.64754 136.136 9.59547 136.373 9.59547C136.548 9.59547 136.706 9.62463 136.848 9.68294C136.994 9.73708 137.121 9.80997 137.229 9.9016C137.341 9.99323 137.435 10.0974 137.51 10.214L137.104 10.5826C137.008 10.4493 136.902 10.3431 136.785 10.264C136.673 10.1807 136.536 10.139 136.373 10.139C136.186 10.139 136.03 10.1952 135.905 10.3077C135.78 10.4202 135.717 10.5659 135.717 10.745C135.717 10.895 135.748 11.022 135.811 11.1261C135.873 11.2302 135.967 11.351 136.092 11.4885L138.397 14H137.71ZM136.154 14.0625C135.867 14.0625 135.615 14.0062 135.399 13.8938C135.182 13.7813 135.013 13.6272 134.892 13.4315C134.776 13.2316 134.718 13.0046 134.718 12.7505C134.718 12.4881 134.788 12.2507 134.93 12.0383C135.072 11.8259 135.278 11.6572 135.548 11.5322L135.817 11.8821C135.65 11.9654 135.519 12.0799 135.423 12.2257C135.328 12.3673 135.28 12.5381 135.28 12.738C135.28 12.9004 135.317 13.04 135.392 13.1566C135.467 13.2732 135.571 13.3648 135.705 13.4315C135.842 13.4939 135.998 13.5252 136.173 13.5252C136.394 13.5252 136.581 13.4794 136.735 13.3877C136.89 13.2961 137.006 13.1795 137.085 13.0379L137.454 13.469C137.371 13.5814 137.26 13.6835 137.123 13.7751C136.99 13.8626 136.84 13.9334 136.673 13.9875C136.511 14.0375 136.338 14.0625 136.154 14.0625ZM95.0745 22L96.8488 17.6642H97.2737L99.0417 22H98.4045L96.9488 18.3327H97.1675L95.6993 22H95.0745ZM95.918 21.0191V20.5068H98.1983V21.0191H95.918ZM100.778 22.0625C100.437 22.0625 100.145 22 99.9036 21.875C99.662 21.7501 99.4475 21.5689 99.2601 21.3315L99.6599 20.9317C99.7973 21.1233 99.9556 21.269 100.135 21.369C100.314 21.4648 100.535 21.5127 100.797 21.5127C101.055 21.5127 101.261 21.4565 101.415 21.344C101.574 21.2316 101.653 21.0774 101.653 20.8817C101.653 20.7193 101.615 20.5881 101.54 20.4881C101.465 20.3881 101.363 20.3069 101.234 20.2444C101.109 20.1778 100.972 20.1195 100.822 20.0695C100.672 20.0154 100.522 19.9591 100.372 19.9008C100.222 19.8383 100.085 19.7634 99.9598 19.6759C99.8348 19.5843 99.7328 19.4656 99.6537 19.3198C99.5787 19.174 99.5412 18.9908 99.5412 18.77C99.5412 18.5243 99.5995 18.316 99.7161 18.1453C99.8369 17.9703 99.9993 17.837 100.203 17.7454C100.412 17.6496 100.645 17.6017 100.903 17.6017C101.186 17.6017 101.44 17.6579 101.665 17.7704C101.89 17.8787 102.074 18.0224 102.215 18.2015L101.815 18.6013C101.686 18.4514 101.547 18.3389 101.397 18.264C101.251 18.189 101.082 18.1515 100.891 18.1515C100.657 18.1515 100.472 18.2036 100.335 18.3077C100.197 18.4077 100.128 18.5493 100.128 18.7325C100.128 18.8783 100.166 18.997 100.241 19.0886C100.32 19.1761 100.422 19.2511 100.547 19.3136C100.672 19.376 100.809 19.4343 100.959 19.4885C101.113 19.5385 101.266 19.5947 101.415 19.6572C101.565 19.7196 101.703 19.7988 101.828 19.8946C101.953 19.9904 102.053 20.1153 102.128 20.2694C102.207 20.4194 102.246 20.6089 102.246 20.838C102.246 21.2211 102.113 21.521 101.847 21.7376C101.584 21.9542 101.228 22.0625 100.778 22.0625ZM104.134 22.0625C103.792 22.0625 103.501 22 103.259 21.875C103.018 21.7501 102.803 21.5689 102.616 21.3315L103.016 20.9317C103.153 21.1233 103.311 21.269 103.49 21.369C103.669 21.4648 103.89 21.5127 104.153 21.5127C104.411 21.5127 104.617 21.4565 104.771 21.344C104.929 21.2316 105.008 21.0774 105.008 20.8817C105.008 20.7193 104.971 20.5881 104.896 20.4881C104.821 20.3881 104.719 20.3069 104.59 20.2444C104.465 20.1778 104.328 20.1195 104.178 20.0695C104.028 20.0154 103.878 19.9591 103.728 19.9008C103.578 19.8383 103.44 19.7634 103.315 19.6759C103.19 19.5843 103.088 19.4656 103.009 19.3198C102.934 19.174 102.897 18.9908 102.897 18.77C102.897 18.5243 102.955 18.316 103.072 18.1453C103.193 17.9703 103.355 17.837 103.559 17.7454C103.767 17.6496 104.001 17.6017 104.259 17.6017C104.542 17.6017 104.796 17.6579 105.021 17.7704C105.246 17.8787 105.429 18.0224 105.571 18.2015L105.171 18.6013C105.042 18.4514 104.902 18.3389 104.752 18.264C104.607 18.189 104.438 18.1515 104.246 18.1515C104.013 18.1515 103.828 18.2036 103.69 18.3077C103.553 18.4077 103.484 18.5493 103.484 18.7325C103.484 18.8783 103.522 18.997 103.597 19.0886C103.676 19.1761 103.778 19.2511 103.903 19.3136C104.028 19.376 104.165 19.4343 104.315 19.4885C104.469 19.5385 104.621 19.5947 104.771 19.6572C104.921 19.7196 105.058 19.7988 105.183 19.8946C105.308 19.9904 105.408 20.1153 105.483 20.2694C105.562 20.4194 105.602 20.6089 105.602 20.838C105.602 21.2211 105.469 21.521 105.202 21.7376C104.94 21.9542 104.584 22.0625 104.134 22.0625ZM106.393 22V17.6642H106.981V22H106.393ZM106.793 22V21.4627H109.28V22H106.793ZM106.793 20.0383V19.526H109.074V20.0383H106.793ZM106.793 18.2015V17.6642H109.249V18.2015H106.793ZM111.063 22V17.7891H111.651V22H111.063ZM109.589 18.2015V17.6642H113.119V18.2015H109.589ZM115.02 22V17.6642H115.433L117.27 20.6818H116.988L118.825 17.6642H119.238V22H118.65V18.695L118.788 18.7325L117.338 21.1128H116.926L115.477 18.7325L115.608 18.695V22H115.02ZM119.943 22L121.717 17.6642H122.142L123.91 22H123.273L121.817 18.3327H122.036L120.567 22H119.943ZM120.786 21.0191V20.5068H123.067V21.0191H120.786ZM124.563 22V17.6642H124.975L125.15 18.3452V22H124.563ZM127.561 22L124.9 18.4451L124.975 17.6642L127.643 21.2128L127.561 22ZM127.561 22L127.387 21.3565V17.6642H127.974V22H127.561ZM128.68 22L130.454 17.6642H130.879L132.647 22H132.009L130.554 18.3327H130.772L129.304 22H128.68ZM129.523 21.0191V20.5068H131.803V21.0191H129.523ZM134.987 22.0625C134.683 22.0625 134.397 22.0062 134.131 21.8938C133.868 21.7772 133.637 21.6168 133.437 21.4127C133.242 21.2086 133.087 20.9712 132.975 20.7005C132.862 20.4298 132.806 20.1382 132.806 19.8259C132.806 19.5135 132.862 19.224 132.975 18.9574C133.087 18.6867 133.244 18.4493 133.444 18.2452C133.643 18.0411 133.877 17.8829 134.143 17.7704C134.414 17.6579 134.708 17.6017 135.024 17.6017C135.37 17.6017 135.688 17.6684 135.98 17.8016C136.272 17.9349 136.515 18.1265 136.711 18.3764L136.305 18.7825C136.167 18.5826 135.986 18.4306 135.761 18.3264C135.536 18.2181 135.291 18.164 135.024 18.164C134.708 18.164 134.426 18.2348 134.181 18.3764C133.939 18.518 133.75 18.7138 133.612 18.9637C133.479 19.2136 133.412 19.501 133.412 19.8259C133.412 20.1549 133.481 20.4444 133.618 20.6943C133.756 20.9442 133.941 21.1399 134.174 21.2815C134.408 21.4231 134.674 21.4939 134.974 21.4939C135.278 21.4939 135.541 21.4356 135.761 21.319C135.986 21.2024 136.159 21.0316 136.28 20.8067C136.401 20.5776 136.461 20.2986 136.461 19.9695L136.817 20.2257H134.943V19.6884H137.067V19.7759C137.067 20.2798 136.978 20.7026 136.798 21.0441C136.624 21.3815 136.378 21.6356 136.061 21.8063C135.749 21.9771 135.391 22.0625 134.987 22.0625ZM137.857 22V17.6642H138.444V22H137.857ZM138.257 22V21.4627H140.743V22H138.257ZM138.257 20.0383V19.526H140.537V20.0383H138.257ZM138.257 18.2015V17.6642H140.712V18.2015H138.257ZM141.542 22V17.6642H141.954L143.791 20.6818H143.51L145.347 17.6642H145.759V22H145.172V18.695L145.309 18.7325L143.86 21.1128H143.448L141.998 18.7325L142.129 18.695V22H141.542ZM146.783 22V17.6642H147.37V22H146.783ZM147.183 22V21.4627H149.669V22H147.183ZM147.183 20.0383V19.526H149.463V20.0383H147.183ZM147.183 18.2015V17.6642H149.638V18.2015H147.183ZM150.468 22V17.6642H150.88L151.055 18.3452V22H150.468ZM153.467 22L150.805 18.4451L150.88 17.6642L153.548 21.2128L153.467 22ZM153.467 22L153.292 21.3565V17.6642H153.879V22H153.467ZM156.053 22V17.7891H156.64V22H156.053ZM154.579 18.2015V17.6642H158.109V18.2015H154.579ZM161.216 22.0625C160.874 22.0625 160.583 22 160.341 21.875C160.1 21.7501 159.885 21.5689 159.698 21.3315L160.098 20.9317C160.235 21.1233 160.393 21.269 160.572 21.369C160.752 21.4648 160.972 21.5127 161.235 21.5127C161.493 21.5127 161.699 21.4565 161.853 21.344C162.012 21.2316 162.091 21.0774 162.091 20.8817C162.091 20.7193 162.053 20.5881 161.978 20.4881C161.903 20.3881 161.801 20.3069 161.672 20.2444C161.547 20.1778 161.41 20.1195 161.26 20.0695C161.11 20.0154 160.96 19.9591 160.81 19.9008C160.66 19.8383 160.523 19.7634 160.398 19.6759C160.273 19.5843 160.171 19.4656 160.091 19.3198C160.016 19.174 159.979 18.9908 159.979 18.77C159.979 18.5243 160.037 18.316 160.154 18.1453C160.275 17.9703 160.437 17.837 160.641 17.7454C160.849 17.6496 161.083 17.6017 161.341 17.6017C161.624 17.6017 161.878 17.6579 162.103 17.7704C162.328 17.8787 162.511 18.0224 162.653 18.2015L162.253 18.6013C162.124 18.4514 161.984 18.3389 161.835 18.264C161.689 18.189 161.52 18.1515 161.328 18.1515C161.095 18.1515 160.91 18.2036 160.772 18.3077C160.635 18.4077 160.566 18.5493 160.566 18.7325C160.566 18.8783 160.604 18.997 160.679 19.0886C160.758 19.1761 160.86 19.2511 160.985 19.3136C161.11 19.376 161.247 19.4343 161.397 19.4885C161.551 19.5385 161.703 19.5947 161.853 19.6572C162.003 19.7196 162.141 19.7988 162.266 19.8946C162.391 19.9904 162.49 20.1153 162.565 20.2694C162.645 20.4194 162.684 20.6089 162.684 20.838C162.684 21.2211 162.551 21.521 162.284 21.7376C162.022 21.9542 161.666 22.0625 161.216 22.0625ZM164.6 20.2382L162.894 17.6642H163.575L164.95 19.7696H164.644L166.024 17.6642H166.693L164.975 20.2382H164.6ZM164.5 22V19.8508H165.087V22H164.5ZM168.147 22.0625C167.805 22.0625 167.514 22 167.272 21.875C167.031 21.7501 166.816 21.5689 166.629 21.3315L167.029 20.9317C167.166 21.1233 167.324 21.269 167.503 21.369C167.682 21.4648 167.903 21.5127 168.166 21.5127C168.424 21.5127 168.63 21.4565 168.784 21.344C168.942 21.2316 169.022 21.0774 169.022 20.8817C169.022 20.7193 168.984 20.5881 168.909 20.4881C168.834 20.3881 168.732 20.3069 168.603 20.2444C168.478 20.1778 168.341 20.1195 168.191 20.0695C168.041 20.0154 167.891 19.9591 167.741 19.9008C167.591 19.8383 167.453 19.7634 167.328 19.6759C167.203 19.5843 167.101 19.4656 167.022 19.3198C166.947 19.174 166.91 18.9908 166.91 18.77C166.91 18.5243 166.968 18.316 167.085 18.1453C167.206 17.9703 167.368 17.837 167.572 17.7454C167.78 17.6496 168.014 17.6017 168.272 17.6017C168.555 17.6017 168.809 17.6579 169.034 17.7704C169.259 17.8787 169.442 18.0224 169.584 18.2015L169.184 18.6013C169.055 18.4514 168.915 18.3389 168.765 18.264C168.62 18.189 168.451 18.1515 168.259 18.1515C168.026 18.1515 167.841 18.2036 167.703 18.3077C167.566 18.4077 167.497 18.5493 167.497 18.7325C167.497 18.8783 167.535 18.997 167.61 19.0886C167.689 19.1761 167.791 19.2511 167.916 19.3136C168.041 19.376 168.178 19.4343 168.328 19.4885C168.482 19.5385 168.634 19.5947 168.784 19.6572C168.934 19.7196 169.072 19.7988 169.196 19.8946C169.321 19.9904 169.421 20.1153 169.496 20.2694C169.575 20.4194 169.615 20.6089 169.615 20.838C169.615 21.2211 169.482 21.521 169.215 21.7376C168.953 21.9542 168.597 22.0625 168.147 22.0625ZM171.355 22V17.7891H171.942V22H171.355ZM169.88 18.2015V17.6642H173.41V18.2015H169.88ZM174.11 22V17.6642H174.697V22H174.11ZM174.51 22V21.4627H176.996V22H174.51ZM174.51 20.0383V19.526H176.79V20.0383H174.51ZM174.51 18.2015V17.6642H176.965V18.2015H174.51ZM177.795 22V17.6642H178.207L180.044 20.6818H179.763L181.6 17.6642H182.012V22H181.425V18.695L181.562 18.7325L180.113 21.1128H179.701L178.251 18.7325L178.382 18.695V22H177.795Z" fill="black"/>
</svg>
