<svg width="18" height="18" viewBox="0 0 18 18" fill="none" xmlns="http://www.w3.org/2000/svg">
<path d="M13.875 13.875L15.75 15.75M3 4.5H15M3 9H6M3 13.5H6M8.25 11.25C8.25 12.0456 8.56607 12.8087 9.12868 13.3713C9.69129 13.9339 10.4543 14.25 11.25 14.25C12.0456 14.25 12.8087 13.9339 13.3713 13.3713C13.9339 12.8087 14.25 12.0456 14.25 11.25C14.25 10.4543 13.9339 9.69129 13.3713 9.12868C12.8087 8.56607 12.0456 8.25 11.25 8.25C10.4543 8.25 9.69129 8.56607 9.12868 9.12868C8.56607 9.69129 8.25 10.4543 8.25 11.25Z" stroke="white" stroke-width="1.5" stroke-linecap="round" stroke-linejoin="round"/>
</svg>
