<svg width="18" height="18" viewBox="0 0 18 18" fill="none" xmlns="http://www.w3.org/2000/svg">
<path d="M3.75 12.75C3.75 13.1478 3.90803 13.5294 4.18934 13.8107C4.47064 14.092 4.85217 14.25 5.25 14.25C5.64782 14.25 6.02935 14.092 6.31066 13.8107C6.59196 13.5294 6.75 13.1478 6.75 12.75M3.75 12.75C3.75 12.3522 3.90803 11.9706 4.18934 11.6893C4.47064 11.408 4.85217 11.25 5.25 11.25C5.64782 11.25 6.02935 11.408 6.31066 11.6893C6.59196 11.9706 6.75 12.3522 6.75 12.75M3.75 12.75H2.25V9.75M6.75 12.75H11.25M11.25 12.75C11.25 13.1478 11.408 13.5294 11.6893 13.8107C11.9706 14.092 12.3522 14.25 12.75 14.25C13.1478 14.25 13.5294 14.092 13.8107 13.8107C14.092 13.5294 14.25 13.1478 14.25 12.75M11.25 12.75C11.25 12.3522 11.408 11.9706 11.6893 11.6893C11.9706 11.408 12.3522 11.25 12.75 11.25C13.1478 11.25 13.5294 11.408 13.8107 11.6893C14.092 11.9706 14.25 12.3522 14.25 12.75M14.25 12.75H15.75V8.25M1.5 3.75H9.75V12.75M15.75 8.25H9.75M15.75 8.25L13.5 4.5H9.75M2.25 6.75H5.25" stroke="white" stroke-width="1.5" stroke-linecap="round" stroke-linejoin="round"/>
</svg>
